<svg xmlns="http://www.w3.org/2000/svg" viewBox="0 0 255.47 352.2">
  <title>Asset 1</title>
  <g id="Layer_2" data-name="Layer 2">
    <g id="Layer_1-2" data-name="Layer 1">
      <g>
        <path d="M39.8,352.2c-1-.43-2-.91-3.11-1.28-6.61-2.27-8.11-6.86-8.11-13.69,0-76.38-.36-152.76-.63-229.14v-.94c-.05-1.82-.12-3.94-2.5-3.91s-2.07,2.13-2.08,3.8c-.19,30.49-.34,61-.63,91.46a19.24,19.24,0,0,1-1.58,7.79C18.82,211.22,13.74,213,8,211.51A10.53,10.53,0,0,1,0,200.9C0,165.83-.1,130.76.19,95.69c0-4,1.82-8.3,3.75-12a32,32,0,0,1,13.39-13,19.74,19.74,0,0,1,8.87-2.28C47.11,68.25,68,68.3,89,68.38c7.65,0,13.28,4.42,18.17,9.57,5.74,6,7.2,13.57,7.14,21.85-.19,26.12.15,52.24.2,78.36,0,7.8-.2,15.6-.38,23.4-.19,8.23-6.94,12.8-14.64,10-4-1.45-6.41-4.94-6.5-9.71q-.34-19.66-.54-39.33c-.22-18.41-.37-36.83-.69-55.25,0-1.36-1.22-3.84-1.91-3.86-2.39,0-2.66,2.07-2.64,4.06q.32,36.06.61,72.11.44,49.94.85,99.89c.17,20.81.23,41.62.56,62.43a7.19,7.19,0,0,1-3.66,6.91c-1.74,1.1-3.42,2.27-5.13,3.42h-10c-1.49-1.07-2.91-2.25-4.47-3.18a7.71,7.71,0,0,1-4.22-7.52c.17-41.9.11-83.8.09-125.7,0-2,.59-5-2.08-5-2.46,0-1.94,3-1.94,4.87q0,63.17,0,126.33c0,2.66-.87,4.45-3,5.6-3.07,1.65-6.25,3.06-9.39,4.58Z"/>
        <path d="M63.53,0l3.55.91C84.81,5.52,95.33,24.53,87.72,42.17,82.21,54.93,67.62,63,54.14,59.65S30.12,44.83,31,28.83c.6-10.91,5.54-19.49,15.49-24.54C50.07,2.45,54.08,1.41,57.91,0Z"/>
        <g>
          <path d="M255.47,184.84c-.48.5-1.18.9-1.43,1.5-2.42,5.78-13.44,5.43-15.57.06a96,96,0,0,1-4.08-11.31c-5.48-21.29-10.79-42.62-16.18-63.94-.25-1-.5-2.35-1.2-2.75a7,7,0,0,0-4.34-1.12c-2.06.38-1.24,2.27-.9,3.61q7.83,30.44,15.69,60.86,6.63,25.75,13.21,51.52c2.15,8.46-3.26,15.8-12,16.18-3.94.17-7.9,0-11.86,0-4.24,0-4.64.41-4.64,4.68q0,46.36,0,92.72c0,7.83-2.4,11.39-9.45,14.32-3,1.27-11.54-3-12.6-7.13a26.33,26.33,0,0,1-.86-6.42q-.06-46.2,0-92.41c0-1.25.24-2.64-.24-3.69s-1.76-2.47-2.61-2.42a5,5,0,0,0-3.16,2.27c-.55.83-.27,2.21-.29,3.35q-.69,47.3-1.37,94.58c-.09,6.55-5.08,11-12.17,11-6.81,0-11.21-4.29-11.22-11.05q0-47.31,0-94.6c0-5.59,0-5.65-5.52-5.65-3.54,0-7.09-.2-10.61,0-10.1.66-14.69-8.87-12.89-16.27,2.44-10.07,5-20.11,7.59-30.16q9.75-38.11,19.52-76.23c.46-1.81.82-3.64,1.33-5.44s1-3.75-1.35-4.33c-2.23-.54-3.82.82-4.47,3-.93,3.07-1.7,6.19-2.52,9.3q-5.81,21.94-11.6,43.9c-1.59,6-3,12.07-4.84,18-2,6.5-5.72,10.18-12.21,9.69-6.12-.45-9.78-5.34-8.19-11.31Q121,147,129.62,114.8c2.08-7.81,4-15.66,6.27-23.42a18.42,18.42,0,0,1,3.51-6.52c3.64-4.3,7.21-8.52,12.32-11.57,8.18-4.89,16.79-6,25.95-5.78,7.8.19,15.61.11,23.41,0a33.51,33.51,0,0,1,23.48,9.13,29.62,29.62,0,0,1,8.89,14.68q10.71,40.94,21.39,81.87a4.56,4.56,0,0,0,.63,1Z"/>
          <path d="M190.53,0c1.18.3,2.36.61,3.54.9,18.47,4.57,29,25,19.52,42.14a29.08,29.08,0,0,1-17.37,14.05c-3.95,1.27-7.86,2-11.84,1.43C168,56,155.59,43.34,158.05,25.58c1.31-9.53,6.07-16.92,14.85-21.22,3.64-1.77,7.58-2.92,11.38-4.36Z"/>
        </g>
      </g>
    </g>
  </g>
</svg>
